{"title":"Life as We Know It 2010 DVDrip English Klam","uid":6671964,"size":1787135979,"categoryP":"video","categoryS":"movies","magnet":"?xt=urn:btih:c7206c9fb2de6b95e86ff13ec93d7c435b8ef1c3&amp;dn=Life+as+We+Know+It+2010+DVDrip+English+Klam&amp;tr=udp%3A%2F%2Ftracker.openbittorrent.com%3A80&amp;tr=udp%3A%2F%2Fopen.demonii.com%3A1337&amp;tr=udp%3A%2F%2Ftracker.coppersurfer.tk%3A6969&amp;tr=udp%3A%2F%2Fexodus.desync.com%3A6969","seeders":0,"leechers":0,"uploader":"Klambake","files":-1,"time":1315904762,"description":"With: Katherine Heigl, Josh Duhamel and Josh Lucas\n\nWanneer de beste vrienden van Holly en Eric (Katherine Heigl &amp; Josh Duhamel) tijdens een ongeluk om het leven komen, staat hun leven op de kop. Ze moeten namelijk niet alleen het verlies verwerken, maar ook het geadopteerde kind van hun vrienden onder hun hoede nemen.\n\nTwo single adults become caregivers to an orphaned girl when their mutual best friends die in an accident.\n\n------------------ Dutch Friends ------------------\nYou can find my Friends at: http://www.Film-Test.nl \n------ They got my dutchs subs ---- and more ------\n\nGeneral:\n\nComplete name                    : Life as We Know It\\Life as We Know It.avi\nFormat                           : AVI\nFormat/Info                      : Audio Video Interleave\nFile size                        : 1.66 GiB\nDuration                         : 1h 49mn\nOverall bit rate                 : 2 168 Kbps\n\nVideo:\n\nFormat                           : MPEG-4 Visual\nFormat profile                   : Simple@L3\nFormat settings, BVOP            : No\nFormat settings, QPel            : No\nFormat settings, GMC             : No warppoints\nFormat settings, Matrix          : Default (H.263)\nCodec ID                         : XVID\nCodec ID/Hint                    : XviD\nDuration                         : 1h 49mn\nBit rate                         : 1 773 Kbps\nWidth                            : 720 pixels\nHeight                           : 304 pixels\nDisplay aspect ratio             : 2.35:1\nFrame rate                       : 25.000 fps\nColor space                      : YUV\nChroma subsampling               : 4:2:0\nBit depth                        : 8 bits\nScan type                        : Progressive\nBits/(Pixel*Frame)               : 0.324\nStream size                      : 1.36 GiB (82%)\nWriting library                  : XviD 1.1.2 (UTC 2006-11-01)\n\nAudio:\n\nFormat                           : AC-3\nFormat/Info                      : Audio Coding 3\nMode extension                   : CM (complete main)\nCodec ID                         : 2000\nDuration                         : 1h 49mn\nBit rate mode                    : Constant\nBit rate                         : 384 Kbps\nChannel(s)                       : 6 channels\nChannel positions                : Front: L C R, Side: L R, LFE\nSampling rate                    : 48.0 KHz\nBit depth                        : 16 bits\nStream size                      : 302 MiB (18%)\nAlignment                        : Aligned on interleaves\nInterleave, duration             : 32 ms (0.80 video frame)\nInterleave, preload duration     : 32 ms\n\n","torrent":{"xt":"urn:btih:c7206c9fb2de6b95e86ff13ec93d7c435b8ef1c3","amp;dn":"Life+as+We+Know+It+2010+DVDrip+English+Klam","amp;tr":["udp%3A%2F%2Ftracker.openbittorrent.com%3A80","udp%3A%2F%2Fopen.demonii.com%3A1337","udp%3A%2F%2Ftracker.coppersurfer.tk%3A6969","udp%3A%2F%2Fexodus.desync.com%3A6969"],"infoHash":"c7206c9fb2de6b95e86ff13ec93d7c435b8ef1c3","infoHashBuffer":{"type":"Buffer","data":[199,32,108,159,178,222,107,149,232,111,241,62,201,61,124,67,91,142,241,195]},"announce":[],"urlList":[]}}